<?xml version="1.0" encoding="UTF-8" standalone="no"?>
<!-- Created with Inkscape (http://www.inkscape.org/) -->

<svg
   xmlns:dc="http://purl.org/dc/elements/1.1/"
   xmlns:cc="http://creativecommons.org/ns#"
   xmlns:rdf="http://www.w3.org/1999/02/22-rdf-syntax-ns#"
   xmlns:svg="http://www.w3.org/2000/svg"
   xmlns="http://www.w3.org/2000/svg"
   xmlns:sodipodi="http://sodipodi.sourceforge.net/DTD/sodipodi-0.dtd"
   xmlns:inkscape="http://www.inkscape.org/namespaces/inkscape"
   width="146.19002"
   height="42.598434"
   viewBox="0 0 38.679441 11.270835"
   version="1.1"
   id="svg16"
   inkscape:version="0.92.1 unknown"
   sodipodi:docname="logo.svg">
  <defs
     id="defs10" />
  <sodipodi:namedview
     id="base"
     pagecolor="#ffffff"
     bordercolor="#666666"
     borderopacity="1.0"
     inkscape:pageopacity="0.0"
     inkscape:pageshadow="2"
     inkscape:zoom="2.8"
     inkscape:cx="121.72228"
     inkscape:cy="17.715419"
     inkscape:document-units="mm"
     inkscape:current-layer="layer1"
     showgrid="false"
     showguides="false"
     units="px"
     fit-margin-top="0"
     fit-margin-left="0"
     fit-margin-right="0"
     fit-margin-bottom="0"
     inkscape:window-width="1317"
     inkscape:window-height="744"
     inkscape:window-x="49"
     inkscape:window-y="24"
     inkscape:window-maximized="1" />
  <metadata
     id="metadata13">
    <rdf:RDF>
      <cc:Work
         rdf:about="">
        <dc:format>image/svg+xml</dc:format>
        <dc:type
           rdf:resource="http://purl.org/dc/dcmitype/StillImage" />
        <dc:title></dc:title>
      </cc:Work>
    </rdf:RDF>
  </metadata>
  <g
     inkscape:label="Capa 1"
     inkscape:groupmode="layer"
     id="layer1"
     style="display:inline"
     transform="translate(2.178485,-137.83747)">
    <path
       style="fill:#348e1b;fill-opacity:1;stroke:#348e1b;stroke-width:0.04545486px;stroke-linecap:butt;stroke-linejoin:miter;stroke-opacity:1"
       d="m -1.7178946,148.16054 v -2.98703 c 0,0 1.46104826,0.94157 2.8246938,0.97404 1.3636457,0.0324 1.6558567,-0.64936 1.3636457,-1.20131 -0.2922093,-0.55195 -0.00811,-0.0243 -0.00811,-0.0243 l -0.9253308,0.5763 0.7061734,-2.79223 2.8896301,-0.16234 -0.6006535,0.68182 c 0,0 1.948066,1.50975 1.1688407,3.24678 -0.7792272,1.73702 -2.1915741,2.0617 -2.1915741,2.0617 0,0 -1.5909205,0.64936 -3.58768765,0.12987 -1.99676555,-0.51949 -1.63962015,-0.50325 -1.63962015,-0.50325 z"
       id="path114"
       inkscape:connector-curvature="0" />
    <path
       inkscape:connector-curvature="0"
       id="path4592"
       d="m 5.4469308,138.56484 v 2.98703 c 0,0 -1.4610499,-0.94156 -2.8246956,-0.97403 -1.3636456,-0.0325 -1.65585495,0.64936 -1.3636456,1.20131 0.2922109,0.55195 0.00811,0.0243 0.00811,0.0243 l 0.9253309,-0.5763 -0.7061735,2.79222 -2.8896299,0.16234 0.60065344,-0.68182 c 0,0 -1.94806424,-1.50976 -1.16883894,-3.24678 0.7792271,-1.73702 2.19157396,-2.0617 2.19157396,-2.0617 0,0 1.59092054,-0.64936 3.58768614,-0.12987 1.9967672,0.51948 1.6396217,0.50325 1.6396217,0.50325 z"
       style="fill:#348e1b;fill-opacity:1;stroke:#348e1b;stroke-width:0.04545486px;stroke-linecap:butt;stroke-linejoin:miter;stroke-opacity:1" />
    <path
       style="fill:#348e1b;fill-opacity:1;stroke:#348e1b;stroke-width:0.04545486px;stroke-linecap:butt;stroke-linejoin:miter;stroke-opacity:1"
       d="m 17.565846,141.11695 c 0,0 0.37881,0.48213 1.285657,0.25254 0.906849,-0.22958 1.079036,-1.44636 1.079036,-1.44636 0,0 0.155277,-0.86087 0.03444,-1.05608 -0.149229,-0.24106 0.149229,0.39029 -0.987201,0.60839 -2.169503,-0.0919 -1.538197,1.2627 -1.572634,1.42341 -0.03444,0.16071 0.154152,-0.61068 1.411926,-0.68874 -1.003645,0.31858 -1.10543,0.65193 -1.251221,0.90684 z"
       id="path4594"
       inkscape:connector-curvature="0"
       sodipodi:nodetypes="cscscscc" />
    <text
       xml:space="preserve"
       style="font-style:normal;font-variant:normal;font-weight:normal;font-stretch:normal;font-size:5.81154728px;line-height:1.25;font-family:helvetica;-inkscape-font-specification:helvetica;letter-spacing:0px;word-spacing:0px;fill:#fffff0;fill-opacity:1;stroke:none;stroke-width:0.14528869"
       x="5.9164486"
       y="146.19156"
       id="text4606"><tspan
         sodipodi:role="line"
         id="tspan4604"
         x="5.9164486"
         y="146.19156"
         style="font-style:normal;font-variant:normal;font-weight:bold;font-stretch:normal;font-family:Sawasdee;-inkscape-font-specification:'Sawasdee Bold';fill:#fffff0;stroke-width:0.14528869">OLBIO</tspan></text>
    <text
       xml:space="preserve"
       style="font-style:normal;font-variant:normal;font-weight:normal;font-stretch:normal;font-size:5.63411903px;line-height:1.25;font-family:helvetica;-inkscape-font-specification:helvetica;letter-spacing:0px;word-spacing:0px;fill:#000000;fill-opacity:1;stroke:none;stroke-width:0.14085299"
       x="24.009441"
       y="146.14816"
       id="text4610"><tspan
         sodipodi:role="line"
         id="tspan4608"
         x="24.009441"
         y="146.14816"
         style="font-style:normal;font-variant:normal;font-weight:normal;font-stretch:normal;font-family:Sawasdee;-inkscape-font-specification:Sawasdee;word-spacing:0px;fill:#fffff0;stroke-width:0.14085299"
         dx="-0.11854034 -0.0034359575">Chile</tspan></text>
    <text
       xml:space="preserve"
       style="font-style:normal;font-variant:normal;font-weight:normal;font-stretch:normal;font-size:2.4042573px;line-height:1.25;font-family:Sawasdee;-inkscape-font-specification:Sawasdee;letter-spacing:0px;word-spacing:0px;fill:#fffff0;fill-opacity:1;stroke:none;stroke-width:0.06010643"
       x="6.3261786"
       y="148.53189"
       id="text4614"><tspan
         sodipodi:role="line"
         id="tspan4612"
         x="6.3261786"
         y="148.53189"
         style="font-style:normal;font-variant:normal;font-weight:bold;font-stretch:normal;font-family:Sawasdee;-inkscape-font-specification:'Sawasdee Bold';fill:#fffff0;stroke-width:0.06010643">Soluciones Biotecnológicas </tspan></text>
  </g>
</svg>
