<?xml version="1.0" encoding="UTF-8" standalone="no"?>
<!-- Created with Inkscape (http://www.inkscape.org/) -->

<svg
   xmlns:dc="http://purl.org/dc/elements/1.1/"
   xmlns:cc="http://creativecommons.org/ns#"
   xmlns:rdf="http://www.w3.org/1999/02/22-rdf-syntax-ns#"
   xmlns:svg="http://www.w3.org/2000/svg"
   xmlns="http://www.w3.org/2000/svg"
   xmlns:sodipodi="http://sodipodi.sourceforge.net/DTD/sodipodi-0.dtd"
   xmlns:inkscape="http://www.inkscape.org/namespaces/inkscape"
   width="185.78798"
   height="54.136692"
   viewBox="0 0 49.156402 14.323666"
   version="1.1"
   id="svg16"
   inkscape:version="0.92.1 unknown"
   sodipodi:docname="logo3.svg">
  <defs
     id="defs10" />
  <sodipodi:namedview
     id="base"
     pagecolor="#ffffff"
     bordercolor="#666666"
     borderopacity="1.0"
     inkscape:pageopacity="0.0"
     inkscape:pageshadow="2"
     inkscape:zoom="1.979899"
     inkscape:cx="125.9"
     inkscape:cy="-26.905026"
     inkscape:document-units="mm"
     inkscape:current-layer="layer1"
     showgrid="false"
     showguides="false"
     units="px"
     fit-margin-top="0"
     fit-margin-left="0"
     fit-margin-right="0"
     fit-margin-bottom="0"
     inkscape:window-width="1317"
     inkscape:window-height="744"
     inkscape:window-x="49"
     inkscape:window-y="24"
     inkscape:window-maximized="1" />
  <metadata
     id="metadata13">
    <rdf:RDF>
      <cc:Work
         rdf:about="">
        <dc:format>image/svg+xml</dc:format>
        <dc:type
           rdf:resource="http://purl.org/dc/dcmitype/StillImage" />
        <dc:title></dc:title>
      </cc:Work>
    </rdf:RDF>
  </metadata>
  <g
     inkscape:label="Capa 1"
     inkscape:groupmode="layer"
     id="layer1"
     style="display:inline"
     transform="translate(1.9274277,-136.06839)">
    <path
       style="fill:#348e1b;fill-opacity:1;stroke:#348e1b;stroke-width:0.05776704px;stroke-linecap:butt;stroke-linejoin:miter;stroke-opacity:1"
       d="m -1.3420792,149.18762 v -3.79612 c 0,0 1.85679691,1.19659 3.5898082,1.23785 1.7330113,0.0414 2.1043725,-0.82523 1.7330113,-1.52669 -0.371359,-0.70145 -0.010307,-0.0309 -0.010307,-0.0309 l -1.1759717,0.73241 0.897452,-3.54855 3.6723335,-0.2063 -0.7633504,0.86649 c 0,0 2.4757314,1.9187 1.4854402,4.12622 -0.9902934,2.20752 -2.7851975,2.62015 -2.7851975,2.62015 0,0 -2.0218473,0.82525 -4.5594714,0.16505 -2.5376219,-0.6602 -2.0837378,-0.63956 -2.0837378,-0.63956 z"
       id="path114"
       inkscape:connector-curvature="0" />
    <path
       inkscape:connector-curvature="0"
       id="path4592"
       d="m 7.7634559,136.99276 v 3.79613 c 0,0 -1.856799,-1.19662 -3.5898103,-1.23788 -1.7330113,-0.0414 -2.1043704,0.82525 -1.7330113,1.5267 0.371361,0.70147 0.010307,0.0309 0.010307,0.0309 l 1.1759718,-0.73239 -0.8974522,3.54854 -3.67233328,0.20631 0.76335031,-0.8665 c 0,0 -2.47572923,-1.91869 -1.48543783,-4.12622 0.99029325,-2.20753 2.7851972,-2.62014 2.7851972,-2.62014 0,0 2.0218473,-0.82525 4.5594695,-0.16506 2.5376241,0.6602 2.0837401,0.63956 2.0837401,0.63956 z"
       style="fill:#348e1b;fill-opacity:1;stroke:#348e1b;stroke-width:0.05776704px;stroke-linecap:butt;stroke-linejoin:miter;stroke-opacity:1" />
    <path
       style="fill:#348e1b;fill-opacity:1;stroke:#348e1b;stroke-width:0.05776704px;stroke-linecap:butt;stroke-linejoin:miter;stroke-opacity:1"
       d="m 23.164975,140.23615 c 0,0 0.481418,0.61271 1.633901,0.32095 1.152483,-0.29178 1.371308,-1.83814 1.371308,-1.83814 0,0 0.197338,-1.09405 0.04376,-1.34213 -0.189649,-0.30636 0.18965,0.496 -1.254599,0.77318 -2.757148,-0.11676 -1.954844,1.60472 -1.998609,1.80896 -0.04377,0.20424 0.195908,-0.77609 1.79437,-0.8753 -1.275499,0.40487 -1.404854,0.82852 -1.590136,1.15248 z"
       id="path4594"
       inkscape:connector-curvature="0"
       sodipodi:nodetypes="cscscscc" />
    <text
       xml:space="preserve"
       style="font-style:normal;font-variant:normal;font-weight:normal;font-stretch:normal;font-size:7.38570023px;line-height:1.25;font-family:helvetica;-inkscape-font-specification:helvetica;letter-spacing:0px;word-spacing:0px;fill:#000080;fill-opacity:1;stroke:none;stroke-width:0.18464251"
       x="8.3601503"
       y="146.68529"
       id="text4606"><tspan
         sodipodi:role="line"
         id="tspan4604"
         x="8.3601503"
         y="146.68529"
         style="font-style:normal;font-variant:normal;font-weight:bold;font-stretch:normal;font-family:Sawasdee;-inkscape-font-specification:'Sawasdee Bold';fill:#002772;fill-opacity:1;stroke-width:0.18464251">OLBIO</tspan></text>
    <text
       xml:space="preserve"
       style="font-style:normal;font-variant:normal;font-weight:normal;font-stretch:normal;font-size:7.16021156px;line-height:1.25;font-family:helvetica;-inkscape-font-specification:helvetica;letter-spacing:0px;word-spacing:0px;fill:#348e1b;fill-opacity:1;stroke:none;stroke-width:0.17900531"
       x="31.353926"
       y="146.63013"
       id="text4610"><tspan
         sodipodi:role="line"
         id="tspan4608"
         x="31.353926"
         y="146.63013"
         style="font-style:normal;font-variant:normal;font-weight:normal;font-stretch:normal;font-family:Sawasdee;-inkscape-font-specification:Sawasdee;word-spacing:0px;fill:#348e1b;fill-opacity:1;stroke-width:0.17900531"
         dx="-0.15064894 -0.0043666428">Chile</tspan></text>
    <text
       xml:space="preserve"
       style="font-style:normal;font-variant:normal;font-weight:normal;font-stretch:normal;font-size:3.05548954px;line-height:1.25;font-family:Sawasdee;-inkscape-font-specification:Sawasdee;letter-spacing:0px;word-spacing:0px;fill:#fffff0;fill-opacity:1;stroke:none;stroke-width:0.07638724"
       x="8.8808613"
       y="149.65952"
       id="text4614"><tspan
         sodipodi:role="line"
         id="tspan4612"
         x="8.8808613"
         y="149.65952"
         style="font-style:normal;font-variant:normal;font-weight:bold;font-stretch:normal;font-family:Sawasdee;-inkscape-font-specification:'Sawasdee Bold';fill:#fffff0;stroke-width:0.07638724"><tspan
   style="fill:#000000;stroke-width:0.07638724"
   id="tspan821">Soluciones Biotecnológicas</tspan> </tspan></text>
  </g>
</svg>
