<?xml version="1.0" encoding="UTF-8" standalone="no"?>
<!-- Created with Inkscape (http://www.inkscape.org/) -->

<svg
   xmlns:dc="http://purl.org/dc/elements/1.1/"
   xmlns:cc="http://creativecommons.org/ns#"
   xmlns:rdf="http://www.w3.org/1999/02/22-rdf-syntax-ns#"
   xmlns:svg="http://www.w3.org/2000/svg"
   xmlns="http://www.w3.org/2000/svg"
   xmlns:sodipodi="http://sodipodi.sourceforge.net/DTD/sodipodi-0.dtd"
   xmlns:inkscape="http://www.inkscape.org/namespaces/inkscape"
   width="187.97574"
   height="54.670704"
   viewBox="0 0 49.735246 14.464956"
   version="1.1"
   id="svg16"
   inkscape:version="0.92.1 unknown"
   sodipodi:docname="logo2.svg">
  <defs
     id="defs10" />
  <sodipodi:namedview
     id="base"
     pagecolor="#ffffff"
     bordercolor="#666666"
     borderopacity="1.0"
     inkscape:pageopacity="0.0"
     inkscape:pageshadow="2"
     inkscape:zoom="2.8"
     inkscape:cx="83.354597"
     inkscape:cy="26.935411"
     inkscape:document-units="mm"
     inkscape:current-layer="layer1"
     showgrid="false"
     showguides="false"
     units="px"
     fit-margin-top="0"
     fit-margin-left="0"
     fit-margin-right="0"
     fit-margin-bottom="0"
     inkscape:window-width="1317"
     inkscape:window-height="744"
     inkscape:window-x="49"
     inkscape:window-y="24"
     inkscape:window-maximized="1" />
  <metadata
     id="metadata13">
    <rdf:RDF>
      <cc:Work
         rdf:about="">
        <dc:format>image/svg+xml</dc:format>
        <dc:type
           rdf:resource="http://purl.org/dc/dcmitype/StillImage" />
        <dc:title></dc:title>
      </cc:Work>
    </rdf:RDF>
  </metadata>
  <g
     inkscape:groupmode="layer"
     id="layer2"
     inkscape:label="Capa 2"
     transform="translate(1.8981681e-8,2.4883269e-6)" />
  <g
     inkscape:label="Capa 1"
     inkscape:groupmode="layer"
     id="layer1"
     style="display:inline"
     transform="translate(2.1784851,-134.61587)">
    <path
       style="fill:#ffffff;fill-opacity:1;stroke:#000000;stroke-width:0.05844729px;stroke-linecap:butt;stroke-linejoin:miter;stroke-opacity:0"
       d="m -1.5862433,147.88964 v -3.84082 c 0,0 1.87866184,1.2107 3.6320802,1.25245 1.7534186,0.0417 2.1291527,-0.83496 1.7534186,-1.54468 -0.3757319,-0.70971 -0.010428,-0.0312 -0.010428,-0.0312 l -1.1898195,0.74102 0.9080201,-3.59034 3.7155774,-0.20874 -0.7723392,0.87671 c 0,0 2.5048846,1.94128 1.5029322,4.17481 -1.0019549,2.23351 -2.817995,2.651 -2.817995,2.651 0,0 -2.0456557,0.83497 -4.61316186,0.16699 -2.56750404,-0.66798 -2.10827524,-0.6471 -2.10827524,-0.6471 z"
       id="path114"
       inkscape:connector-curvature="0" />
    <path
       inkscape:connector-curvature="0"
       id="path4592"
       d="m 7.6265149,135.55119 v 3.84081 c 0,0 -1.878664,-1.21068 -3.6320826,-1.25243 -1.7534185,-0.0418 -2.1291505,0.83496 -1.7534185,1.54468 0.375734,0.70971 0.010428,0.0312 0.010428,0.0312 l 1.1898196,-0.74102 -0.9080201,3.59032 -3.7155772,0.20874 0.77233915,-0.8767 c 0,0 -2.50488235,-1.9413 -1.50292995,-4.17481 1.00195477,-2.23352 2.81799486,-2.651 2.81799486,-2.651 0,0 2.04565574,-0.83497 4.61315984,-0.16699 2.5675062,0.66796 2.1082773,0.64709 2.1082773,0.64709 z"
       style="fill:#ffffff;fill-opacity:1;stroke:#000000;stroke-width:0.05844729px;stroke-linecap:butt;stroke-linejoin:miter;stroke-opacity:0" />
    <path
       style="fill:#ffffff;fill-opacity:1;stroke:#000000;stroke-width:0.05844729px;stroke-linecap:butt;stroke-linejoin:miter;stroke-opacity:0"
       d="m 23.209398,138.83277 c 0,0 0.487086,0.61994 1.653138,0.32472 1.166055,-0.2952 1.387459,-1.85977 1.387459,-1.85977 0,0 0.19966,-1.10694 0.04428,-1.35794 -0.191884,-0.30997 0.191883,0.50184 -1.269374,0.78228 -2.789616,-0.11816 -1.977863,1.62362 -2.022143,1.83027 -0.04428,0.20665 0.198214,-0.78523 1.815499,-0.8856 -1.290518,0.40964 -1.421397,0.83827 -1.608859,1.16604 z"
       id="path4594"
       inkscape:connector-curvature="0"
       sodipodi:nodetypes="cscscscc" />
    <text
       xml:space="preserve"
       style="font-style:normal;font-variant:normal;font-weight:normal;font-stretch:normal;font-size:7.47267056px;line-height:1.25;font-family:helvetica;-inkscape-font-specification:helvetica;letter-spacing:0px;word-spacing:0px;fill:#ffffff;fill-opacity:1;stroke:none;stroke-width:0.18681678"
       x="8.2302361"
       y="145.35786"
       id="text4606"><tspan
         sodipodi:role="line"
         id="tspan4604"
         x="8.2302361"
         y="145.35786"
         style="font-style:normal;font-variant:normal;font-weight:bold;font-stretch:normal;font-family:Sawasdee;-inkscape-font-specification:'Sawasdee Bold';fill:#ffffff;stroke-width:0.18681678">OLBIO</tspan></text>
    <text
       xml:space="preserve"
       style="font-style:normal;font-variant:normal;font-weight:normal;font-stretch:normal;font-size:7.24452782px;line-height:1.25;font-family:helvetica;-inkscape-font-specification:helvetica;letter-spacing:0px;word-spacing:0px;fill:#ffffff;fill-opacity:1;stroke:none;stroke-width:0.18111321"
       x="31.494776"
       y="145.30206"
       id="text4610"><tspan
         sodipodi:role="line"
         id="tspan4608"
         x="31.494776"
         y="145.30206"
         style="font-style:normal;font-variant:normal;font-weight:normal;font-stretch:normal;font-family:Sawasdee;-inkscape-font-specification:Sawasdee;word-spacing:0px;fill:#ffffff;stroke-width:0.18111321"
         dx="-0.1524229 -0.0044180625">Chile</tspan></text>
    <text
       xml:space="preserve"
       style="font-style:normal;font-variant:normal;font-weight:normal;font-stretch:normal;font-size:2.98703027px;line-height:1.25;font-family:Sawasdee;-inkscape-font-specification:Sawasdee;letter-spacing:0px;word-spacing:0px;fill:#ffffff;fill-opacity:1;stroke:none;stroke-width:0.07467576"
       x="8.7620773"
       y="148.29022"
       id="text4614"><tspan
         sodipodi:role="line"
         id="tspan4612"
         x="8.7620773"
         y="148.29022"
         style="font-style:normal;font-variant:normal;font-weight:bold;font-stretch:normal;font-family:Sawasdee;-inkscape-font-specification:'Sawasdee Bold';fill:#ffffff;stroke-width:0.07467576">Soluciones Biotecnológicas </tspan></text>
  </g>
</svg>
