<?xml version="1.0" encoding="UTF-8" standalone="no"?>
<!-- Created with Inkscape (http://www.inkscape.org/) -->

<svg
   xmlns:dc="http://purl.org/dc/elements/1.1/"
   xmlns:cc="http://creativecommons.org/ns#"
   xmlns:rdf="http://www.w3.org/1999/02/22-rdf-syntax-ns#"
   xmlns:svg="http://www.w3.org/2000/svg"
   xmlns="http://www.w3.org/2000/svg"
   xmlns:sodipodi="http://sodipodi.sourceforge.net/DTD/sodipodi-0.dtd"
   xmlns:inkscape="http://www.inkscape.org/namespaces/inkscape"
   width="22.514507cm"
   height="6.5604844cm"
   viewBox="0 0 225.14507 65.604842"
   version="1.1"
   id="svg16"
   inkscape:version="0.92.1 unknown"
   sodipodi:docname="SOLBIO.svg">
  <defs
     id="defs10" />
  <sodipodi:namedview
     id="base"
     pagecolor="#ffffff"
     bordercolor="#666666"
     borderopacity="1.0"
     inkscape:pageopacity="0.0"
     inkscape:pageshadow="2"
     inkscape:zoom="0.35"
     inkscape:cx="196.93166"
     inkscape:cy="93.453221"
     inkscape:document-units="mm"
     inkscape:current-layer="layer1"
     showgrid="false"
     showguides="false"
     units="cm"
     fit-margin-top="0"
     fit-margin-left="0"
     fit-margin-right="0"
     fit-margin-bottom="0"
     inkscape:window-width="1317"
     inkscape:window-height="744"
     inkscape:window-x="49"
     inkscape:window-y="24"
     inkscape:window-maximized="1" />
  <metadata
     id="metadata13">
    <rdf:RDF>
      <cc:Work
         rdf:about="">
        <dc:format>image/svg+xml</dc:format>
        <dc:type
           rdf:resource="http://purl.org/dc/dcmitype/StillImage" />
        <dc:title></dc:title>
      </cc:Work>
    </rdf:RDF>
  </metadata>
  <g
     inkscape:label="Capa 1"
     inkscape:groupmode="layer"
     id="layer1"
     style="display:inline"
     transform="translate(2.4619684,-84.92086)">
    <path
       style="fill:#348e1b;fill-opacity:1;stroke:#348e1b;stroke-width:0.26458332px;stroke-linecap:butt;stroke-linejoin:miter;stroke-opacity:1"
       d="m 0.21904048,145.00906 v -17.38691 c 0,0 8.50446002,5.48066 16.44195952,5.66965 7.9375,0.18899 9.6384,-3.77976 7.9375,-6.99256 -1.70089,-3.2128 -0.0472,-0.14174 -0.0472,-0.14174 l -5.38616,3.35454 4.11049,-16.25298 16.81994,-0.94494 -3.49628,3.96875 c 0,0 11.33929,8.78794 6.80358,18.89881 -4.53572,10.11086 -12.7567,12.00074 -12.7567,12.00074 0,0 -9.26042,3.77976 -20.8831895,0.75595 -11.62276,-3.02381 -9.54389002,-2.92931 -9.54389002,-2.92931 z"
       id="path114"
       inkscape:connector-curvature="0" />
    <path
       inkscape:connector-curvature="0"
       id="path4592"
       d="m 41.92401,89.15444 v 17.38691 c 0,0 -8.50447,-5.48066 -16.44197,-5.66964 -7.9375,-0.18899 -9.63839,3.77976 -7.9375,6.99256 1.7009,3.2128 0.0472,0.14174 0.0472,0.14174 l 5.38616,-3.35454 -4.11049,16.25297 -16.8199395,0.94494 3.49628,-3.96875 c 0,0 -11.33928,-8.78794 -6.80357,-18.898804 C 3.2759005,88.87096 11.49688,86.98108 11.49688,86.98108 c 0,0 9.26042,-3.77976 20.88318,-0.75595 11.62277,3.02381 9.5439,2.92931 9.5439,2.92931 z"
       style="fill:#348e1b;fill-opacity:1;stroke:#348e1b;stroke-width:0.26458332px;stroke-linecap:butt;stroke-linejoin:miter;stroke-opacity:1" />
    <path
       style="fill:#348e1b;fill-opacity:1;stroke:#348e1b;stroke-width:0.26458332px;stroke-linecap:butt;stroke-linejoin:miter;stroke-opacity:1"
       d="m 112.46571,104.00976 c 0,0 2.20498,2.80634 7.48355,1.46999 5.27858,-1.33635 6.28084,-8.418994 6.28084,-8.418994 0,0 0.90384,-5.010949 0.20045,-6.147199 -0.86863,-1.403165 0.86863,2.271791 -5.74629,3.54132 -12.62823,-0.534802 -8.95353,7.349913 -9.15398,8.285353 -0.20045,0.93545 0.89729,-3.554651 8.21853,-4.009038 -5.84201,1.854388 -6.43448,3.794768 -7.2831,5.278568 z"
       id="path4594"
       inkscape:connector-curvature="0"
       sodipodi:nodetypes="cscscscc" />
    <text
       xml:space="preserve"
       style="font-style:normal;font-variant:normal;font-weight:normal;font-stretch:normal;font-size:33.82781982px;line-height:1.25;font-family:helvetica;-inkscape-font-specification:helvetica;letter-spacing:0px;word-spacing:0px;fill:#fffff0;fill-opacity:1;stroke:none;stroke-width:0.8456955"
       x="44.656975"
       y="133.54797"
       id="text4606"><tspan
         sodipodi:role="line"
         id="tspan4604"
         x="44.656975"
         y="133.54797"
         style="font-style:normal;font-variant:normal;font-weight:bold;font-stretch:normal;font-family:Sawasdee;-inkscape-font-specification:'Sawasdee Bold';fill:#fffff0;stroke-width:0.8456955">OLBIO</tspan></text>
    <text
       xml:space="preserve"
       style="font-style:normal;font-variant:normal;font-weight:normal;font-stretch:normal;font-size:32.79504395px;line-height:1.25;font-family:helvetica;-inkscape-font-specification:helvetica;letter-spacing:0px;word-spacing:0px;fill:#000000;fill-opacity:1;stroke:none;stroke-width:0.81987613"
       x="149.97256"
       y="133.29536"
       id="text4610"><tspan
         sodipodi:role="line"
         id="tspan4608"
         x="149.97256"
         y="133.29536"
         style="font-style:normal;font-variant:normal;font-weight:normal;font-stretch:normal;font-family:Sawasdee;-inkscape-font-specification:Sawasdee;word-spacing:0px;fill:#fffff0;stroke-width:0.81987613"
         dx="-0.68999887 -0.02">Chile</tspan></text>
    <text
       xml:space="preserve"
       style="font-style:normal;font-variant:normal;font-weight:normal;font-stretch:normal;font-size:13.99468517px;line-height:1.25;font-family:Sawasdee;-inkscape-font-specification:Sawasdee;letter-spacing:0px;word-spacing:0px;fill:#fffff0;fill-opacity:1;stroke:none;stroke-width:0.34986711"
       x="47.041924"
       y="147.17053"
       id="text4614"><tspan
         sodipodi:role="line"
         id="tspan4612"
         x="47.041924"
         y="147.17053"
         style="font-style:normal;font-variant:normal;font-weight:bold;font-stretch:normal;font-family:Sawasdee;-inkscape-font-specification:'Sawasdee Bold';fill:#fffff0;stroke-width:0.34986711">Soluciones Biotecnológicas </tspan></text>
  </g>
</svg>
